M48
;Layer_Color=9474304
;FILE_FORMAT=2:5
INCH,LZ
;TYPE=PLATED
T1F00S00C0.03937
%
T01
X0106299Y0110236
X01075Y0122
X0106299Y0133858
X0107968Y0148
X0134031
Y0130843
Y0121
Y0111158
X0159157Y0131
X0169
X0178842
Y01425
X0169
X0159157
Y0154
X0169
X0178842
X0177165Y011811
Y0108268
X0134031Y0158
Y0168
Y0178
X0107968
Y0168
Y0158
M30
