%FSLAX25Y25*%
%MOIN*%
G70*
G01*
G75*
G04 Layer_Color=8388736*
%ADD10C,0.07874*%
%ADD11R,0.05315X0.03150*%
%ADD12C,0.03000*%
%ADD13C,0.05906*%
%ADD14C,0.08674*%
%ADD15R,0.06115X0.03950*%
%ADD16C,0.06706*%
D14*
X134031Y121000D02*
D03*
Y111158D02*
D03*
X178842Y131000D02*
D03*
Y142500D02*
D03*
Y154000D02*
D03*
X159157D02*
D03*
X169000Y131000D02*
D03*
Y142500D02*
D03*
Y154000D02*
D03*
X134031Y130843D02*
D03*
X107968Y148000D02*
D03*
Y158000D02*
D03*
Y168000D02*
D03*
X134031Y178000D02*
D03*
Y158000D02*
D03*
Y168000D02*
D03*
Y148000D02*
D03*
D15*
X146500Y157937D02*
D03*
Y150063D02*
D03*
X150461Y116783D02*
D03*
Y108909D02*
D03*
X160961Y116783D02*
D03*
Y108909D02*
D03*
X121000Y136563D02*
D03*
Y144437D02*
D03*
Y177437D02*
D03*
Y169563D02*
D03*
D16*
X106299Y110236D02*
D03*
X177165Y118110D02*
D03*
Y108268D02*
D03*
X106299Y133858D02*
D03*
X134031Y111158D02*
D03*
Y121000D02*
D03*
Y130843D02*
D03*
X107500Y122000D02*
D03*
X159157Y131000D02*
D03*
X169000D02*
D03*
X178842D02*
D03*
X159157Y154000D02*
D03*
X169000D02*
D03*
X178842D02*
D03*
Y142500D02*
D03*
X169000D02*
D03*
X159157D02*
D03*
X107968Y178000D02*
D03*
Y158000D02*
D03*
X134031D02*
D03*
Y168000D02*
D03*
X107968D02*
D03*
X134031Y178000D02*
D03*
X107968Y148000D02*
D03*
X134031D02*
D03*
M02*
