%FSLAX25Y25*%
%MOIN*%
G70*
G01*
G75*
G04 Layer_Color=16711935*
%ADD10C,0.07874*%
%ADD11R,0.05315X0.03150*%
%ADD12C,0.03000*%
%ADD13C,0.05906*%
%ADD14C,0.08674*%
%ADD15R,0.06115X0.03950*%
%ADD16C,0.06706*%
%ADD17C,0.01000*%
%ADD18C,0.00394*%
D17*
X100000Y100394D02*
X187008D01*
Y184153D01*
X101315Y101315D02*
Y140685D01*
Y101315D02*
X140685D01*
Y140685D01*
X101315D02*
X140685D01*
X154039Y125882D02*
Y136118D01*
X183961D01*
Y125882D02*
Y136118D01*
X154039Y125882D02*
X183961D01*
X154039Y148882D02*
Y159118D01*
X183961D01*
Y148882D02*
Y159118D01*
X154039Y148882D02*
X183961D01*
X154039Y137382D02*
X183961D01*
Y147618D01*
X154039D02*
X183961D01*
X154039Y137382D02*
Y147618D01*
X109153Y184153D02*
X187008D01*
X101315Y143315D02*
Y182685D01*
Y143315D02*
X140685D01*
Y182685D01*
X101315D02*
X140685D01*
X100000Y184153D02*
X109153D01*
X100000Y100394D02*
Y184153D01*
D18*
X144039Y156756D02*
X148961D01*
X144039Y151244D02*
X148961D01*
Y150063D02*
Y157937D01*
X144039Y150063D02*
Y157937D01*
X148961D01*
X144039Y150063D02*
X148961D01*
X148000Y115602D02*
X152921D01*
X148000Y110090D02*
X152921D01*
Y108909D02*
Y116783D01*
X148000Y108909D02*
Y116783D01*
X152921D01*
X148000Y108909D02*
X152921D01*
X158500Y115602D02*
X163421D01*
X158500Y110090D02*
X163421D01*
Y108909D02*
Y116783D01*
X158500Y108909D02*
Y116783D01*
X163421D01*
X158500Y108909D02*
X163421D01*
X118539Y137744D02*
X123461D01*
X118539Y143256D02*
X123461D01*
X118539Y136563D02*
Y144437D01*
X123461Y136563D02*
Y144437D01*
X118539Y136563D02*
X123461D01*
X118539Y144437D02*
X123461D01*
X118539Y176256D02*
X123461D01*
X118539Y170744D02*
X123461D01*
Y169563D02*
Y177437D01*
X118539Y169563D02*
Y177437D01*
X123461D01*
X118539Y169563D02*
X123461D01*
M02*
