%FSLAX25Y25*%
%MOIN*%
G70*
G01*
G75*
G04 Layer_Physical_Order=2*
G04 Layer_Color=16711680*
%ADD10C,0.07874*%
%ADD11R,0.05315X0.03150*%
%ADD12C,0.03000*%
%ADD13C,0.05906*%
G36*
X187008Y100394D02*
X100000D01*
Y184153D01*
X187008D01*
Y100394D01*
D02*
G37*
%LPC*%
G36*
X134031Y134830D02*
X133000Y134694D01*
X132038Y134296D01*
X131212Y133662D01*
X130579Y132837D01*
X130181Y131875D01*
X130045Y130843D01*
X130181Y129811D01*
X130579Y128850D01*
X131212Y128024D01*
X132038Y127390D01*
X133000Y126992D01*
X134031Y126856D01*
X135063Y126992D01*
X136025Y127390D01*
X136851Y128024D01*
X137484Y128850D01*
X137882Y129811D01*
X138018Y130843D01*
X137882Y131875D01*
X137484Y132837D01*
X136851Y133662D01*
X136025Y134296D01*
X135063Y134694D01*
X134031Y134830D01*
D02*
G37*
G36*
X107500Y125987D02*
X106468Y125851D01*
X105507Y125453D01*
X104681Y124819D01*
X104047Y123993D01*
X103649Y123032D01*
X103513Y122000D01*
X103649Y120968D01*
X104047Y120007D01*
X104681Y119181D01*
X105507Y118547D01*
X106468Y118149D01*
X107500Y118013D01*
X108532Y118149D01*
X109493Y118547D01*
X110319Y119181D01*
X110953Y120007D01*
X111351Y120968D01*
X111487Y122000D01*
X111351Y123032D01*
X110953Y123993D01*
X110319Y124819D01*
X109493Y125453D01*
X108532Y125851D01*
X107500Y125987D01*
D02*
G37*
G36*
X178842Y134987D02*
X177811Y134851D01*
X176849Y134453D01*
X176023Y133819D01*
X175390Y132993D01*
X174992Y132032D01*
X174856Y131000D01*
X174992Y129968D01*
X175390Y129007D01*
X176023Y128181D01*
X176849Y127547D01*
X177811Y127149D01*
X178842Y127013D01*
X179874Y127149D01*
X180836Y127547D01*
X181662Y128181D01*
X182295Y129007D01*
X182694Y129968D01*
X182829Y131000D01*
X182694Y132032D01*
X182295Y132993D01*
X181662Y133819D01*
X180836Y134453D01*
X179874Y134851D01*
X178842Y134987D01*
D02*
G37*
G36*
X169000D02*
X167968Y134851D01*
X167007Y134453D01*
X166181Y133819D01*
X165547Y132993D01*
X165149Y132032D01*
X165013Y131000D01*
X165149Y129968D01*
X165547Y129007D01*
X166181Y128181D01*
X167007Y127547D01*
X167968Y127149D01*
X169000Y127013D01*
X170032Y127149D01*
X170993Y127547D01*
X171819Y128181D01*
X172453Y129007D01*
X172851Y129968D01*
X172987Y131000D01*
X172851Y132032D01*
X172453Y132993D01*
X171819Y133819D01*
X170993Y134453D01*
X170032Y134851D01*
X169000Y134987D01*
D02*
G37*
G36*
X134031Y125980D02*
X132743Y125810D01*
X131542Y125312D01*
X130510Y124521D01*
X129719Y123490D01*
X129222Y122289D01*
X129052Y121000D01*
X129222Y119711D01*
X129719Y118510D01*
X130510Y117479D01*
X131542Y116688D01*
X132743Y116190D01*
X134031Y116020D01*
X135320Y116190D01*
X136521Y116688D01*
X137553Y117479D01*
X138344Y118510D01*
X138841Y119711D01*
X139011Y121000D01*
X138841Y122289D01*
X138344Y123490D01*
X137553Y124521D01*
X136521Y125312D01*
X135320Y125810D01*
X134031Y125980D01*
D02*
G37*
G36*
X106299Y114223D02*
X105267Y114087D01*
X104306Y113689D01*
X103480Y113055D01*
X102847Y112230D01*
X102448Y111268D01*
X102312Y110236D01*
X102448Y109204D01*
X102847Y108243D01*
X103480Y107417D01*
X104306Y106783D01*
X105267Y106385D01*
X106299Y106249D01*
X107331Y106385D01*
X108293Y106783D01*
X109118Y107417D01*
X109752Y108243D01*
X110150Y109204D01*
X110286Y110236D01*
X110150Y111268D01*
X109752Y112230D01*
X109118Y113055D01*
X108293Y113689D01*
X107331Y114087D01*
X106299Y114223D01*
D02*
G37*
G36*
X177165Y112255D02*
X176134Y112119D01*
X175172Y111720D01*
X174346Y111087D01*
X173713Y110261D01*
X173314Y109300D01*
X173179Y108268D01*
X173314Y107236D01*
X173713Y106274D01*
X174346Y105449D01*
X175172Y104815D01*
X176134Y104417D01*
X177165Y104281D01*
X178197Y104417D01*
X179159Y104815D01*
X179984Y105449D01*
X180618Y106274D01*
X181016Y107236D01*
X181152Y108268D01*
X181016Y109300D01*
X180618Y110261D01*
X179984Y111087D01*
X179159Y111720D01*
X178197Y112119D01*
X177165Y112255D01*
D02*
G37*
G36*
Y122097D02*
X176134Y121961D01*
X175172Y121563D01*
X174346Y120929D01*
X173713Y120104D01*
X173314Y119142D01*
X173179Y118110D01*
X173314Y117078D01*
X173713Y116117D01*
X174346Y115291D01*
X175172Y114657D01*
X176134Y114259D01*
X177165Y114123D01*
X178197Y114259D01*
X179159Y114657D01*
X179984Y115291D01*
X180618Y116117D01*
X181016Y117078D01*
X181152Y118110D01*
X181016Y119142D01*
X180618Y120104D01*
X179984Y120929D01*
X179159Y121563D01*
X178197Y121961D01*
X177165Y122097D01*
D02*
G37*
G36*
X134031Y115144D02*
X133000Y115008D01*
X132038Y114610D01*
X131212Y113977D01*
X130579Y113151D01*
X130181Y112189D01*
X130045Y111158D01*
X130181Y110126D01*
X130579Y109164D01*
X131212Y108338D01*
X132038Y107705D01*
X133000Y107307D01*
X134031Y107171D01*
X135063Y107307D01*
X136025Y107705D01*
X136851Y108338D01*
X137484Y109164D01*
X137882Y110126D01*
X138018Y111158D01*
X137882Y112189D01*
X137484Y113151D01*
X136851Y113977D01*
X136025Y114610D01*
X135063Y115008D01*
X134031Y115144D01*
D02*
G37*
G36*
X169000Y146487D02*
X167968Y146351D01*
X167007Y145953D01*
X166181Y145319D01*
X165547Y144493D01*
X165149Y143532D01*
X165013Y142500D01*
X165149Y141468D01*
X165547Y140507D01*
X166181Y139681D01*
X167007Y139047D01*
X167968Y138649D01*
X169000Y138513D01*
X170032Y138649D01*
X170993Y139047D01*
X171819Y139681D01*
X172453Y140507D01*
X172851Y141468D01*
X172987Y142500D01*
X172851Y143532D01*
X172453Y144493D01*
X171819Y145319D01*
X170993Y145953D01*
X170032Y146351D01*
X169000Y146487D01*
D02*
G37*
G36*
X134031Y161987D02*
X133000Y161851D01*
X132038Y161453D01*
X131212Y160819D01*
X130579Y159993D01*
X130181Y159032D01*
X130045Y158000D01*
X130181Y156968D01*
X130579Y156007D01*
X131212Y155181D01*
X132038Y154547D01*
X133000Y154149D01*
X134031Y154013D01*
X135063Y154149D01*
X136025Y154547D01*
X136851Y155181D01*
X137484Y156007D01*
X137882Y156968D01*
X138018Y158000D01*
X137882Y159032D01*
X137484Y159993D01*
X136851Y160819D01*
X136025Y161453D01*
X135063Y161851D01*
X134031Y161987D01*
D02*
G37*
G36*
X107968D02*
X106937Y161851D01*
X105975Y161453D01*
X105149Y160819D01*
X104516Y159993D01*
X104118Y159032D01*
X103982Y158000D01*
X104118Y156968D01*
X104516Y156007D01*
X105149Y155181D01*
X105975Y154547D01*
X106937Y154149D01*
X107968Y154013D01*
X109000Y154149D01*
X109962Y154547D01*
X110788Y155181D01*
X111421Y156007D01*
X111820Y156968D01*
X111955Y158000D01*
X111820Y159032D01*
X111421Y159993D01*
X110788Y160819D01*
X109962Y161453D01*
X109000Y161851D01*
X107968Y161987D01*
D02*
G37*
G36*
Y171987D02*
X106937Y171851D01*
X105975Y171453D01*
X105149Y170819D01*
X104516Y169993D01*
X104118Y169032D01*
X103982Y168000D01*
X104118Y166968D01*
X104516Y166007D01*
X105149Y165181D01*
X105975Y164547D01*
X106937Y164149D01*
X107968Y164013D01*
X109000Y164149D01*
X109962Y164547D01*
X110788Y165181D01*
X111421Y166007D01*
X111820Y166968D01*
X111955Y168000D01*
X111820Y169032D01*
X111421Y169993D01*
X110788Y170819D01*
X109962Y171453D01*
X109000Y171851D01*
X107968Y171987D01*
D02*
G37*
G36*
X134031Y181987D02*
X133000Y181851D01*
X132038Y181453D01*
X131212Y180819D01*
X130579Y179993D01*
X130181Y179032D01*
X130045Y178000D01*
X130181Y176968D01*
X130579Y176007D01*
X131212Y175181D01*
X132038Y174547D01*
X133000Y174149D01*
X134031Y174013D01*
X135063Y174149D01*
X136025Y174547D01*
X136851Y175181D01*
X137484Y176007D01*
X137882Y176968D01*
X138018Y178000D01*
X137882Y179032D01*
X137484Y179993D01*
X136851Y180819D01*
X136025Y181453D01*
X135063Y181851D01*
X134031Y181987D01*
D02*
G37*
G36*
Y171987D02*
X133000Y171851D01*
X132038Y171453D01*
X131212Y170819D01*
X130579Y169993D01*
X130181Y169032D01*
X130045Y168000D01*
X130181Y166968D01*
X130579Y166007D01*
X131212Y165181D01*
X132038Y164547D01*
X133000Y164149D01*
X134031Y164013D01*
X135063Y164149D01*
X136025Y164547D01*
X136851Y165181D01*
X137484Y166007D01*
X137882Y166968D01*
X138018Y168000D01*
X137882Y169032D01*
X137484Y169993D01*
X136851Y170819D01*
X136025Y171453D01*
X135063Y171851D01*
X134031Y171987D01*
D02*
G37*
G36*
X107968Y151987D02*
X106937Y151851D01*
X105975Y151453D01*
X105149Y150819D01*
X104516Y149993D01*
X104118Y149032D01*
X103982Y148000D01*
X104118Y146968D01*
X104516Y146007D01*
X105149Y145181D01*
X105975Y144547D01*
X106937Y144149D01*
X107968Y144013D01*
X109000Y144149D01*
X109962Y144547D01*
X110788Y145181D01*
X111421Y146007D01*
X111820Y146968D01*
X111955Y148000D01*
X111820Y149032D01*
X111421Y149993D01*
X110788Y150819D01*
X109962Y151453D01*
X109000Y151851D01*
X107968Y151987D01*
D02*
G37*
G36*
X178842Y146487D02*
X177811Y146351D01*
X176849Y145953D01*
X176023Y145319D01*
X175390Y144493D01*
X174992Y143532D01*
X174856Y142500D01*
X174992Y141468D01*
X175390Y140507D01*
X176023Y139681D01*
X176849Y139047D01*
X177811Y138649D01*
X178842Y138513D01*
X179874Y138649D01*
X180836Y139047D01*
X181662Y139681D01*
X182295Y140507D01*
X182694Y141468D01*
X182829Y142500D01*
X182694Y143532D01*
X182295Y144493D01*
X181662Y145319D01*
X180836Y145953D01*
X179874Y146351D01*
X178842Y146487D01*
D02*
G37*
G36*
X134031Y151987D02*
X133000Y151851D01*
X132038Y151453D01*
X131212Y150819D01*
X130579Y149993D01*
X130181Y149032D01*
X130045Y148000D01*
X130181Y146968D01*
X130579Y146007D01*
X131212Y145181D01*
X132038Y144547D01*
X133000Y144149D01*
X134031Y144013D01*
X135063Y144149D01*
X136025Y144547D01*
X136851Y145181D01*
X137484Y146007D01*
X137882Y146968D01*
X138018Y148000D01*
X137882Y149032D01*
X137484Y149993D01*
X136851Y150819D01*
X136025Y151453D01*
X135063Y151851D01*
X134031Y151987D01*
D02*
G37*
G36*
X178842Y157987D02*
X177811Y157851D01*
X176849Y157453D01*
X176023Y156819D01*
X175390Y155993D01*
X174992Y155032D01*
X174856Y154000D01*
X174992Y152968D01*
X175390Y152007D01*
X176023Y151181D01*
X176849Y150547D01*
X177811Y150149D01*
X178842Y150013D01*
X179874Y150149D01*
X180836Y150547D01*
X181662Y151181D01*
X182295Y152007D01*
X182694Y152968D01*
X182829Y154000D01*
X182694Y155032D01*
X182295Y155993D01*
X181662Y156819D01*
X180836Y157453D01*
X179874Y157851D01*
X178842Y157987D01*
D02*
G37*
G36*
X169000D02*
X167968Y157851D01*
X167007Y157453D01*
X166181Y156819D01*
X165547Y155993D01*
X165149Y155032D01*
X165013Y154000D01*
X165149Y152968D01*
X165547Y152007D01*
X166181Y151181D01*
X167007Y150547D01*
X167968Y150149D01*
X169000Y150013D01*
X170032Y150149D01*
X170993Y150547D01*
X171819Y151181D01*
X172453Y152007D01*
X172851Y152968D01*
X172987Y154000D01*
X172851Y155032D01*
X172453Y155993D01*
X171819Y156819D01*
X170993Y157453D01*
X170032Y157851D01*
X169000Y157987D01*
D02*
G37*
%LPD*%
D10*
X159157Y154000D02*
D03*
X134031Y121000D02*
D03*
X107968Y178000D02*
D03*
X159157Y142500D02*
D03*
Y131000D02*
D03*
D13*
X106299Y110236D02*
D03*
X177165Y118110D02*
D03*
Y108268D02*
D03*
X106299Y133858D02*
D03*
X134031Y111158D02*
D03*
Y121000D02*
D03*
Y130843D02*
D03*
X107500Y122000D02*
D03*
X159157Y131000D02*
D03*
X169000D02*
D03*
X178842D02*
D03*
X159157Y154000D02*
D03*
X169000D02*
D03*
X178842D02*
D03*
Y142500D02*
D03*
X169000D02*
D03*
X159157D02*
D03*
X107968Y178000D02*
D03*
Y158000D02*
D03*
X134031D02*
D03*
Y168000D02*
D03*
X107968D02*
D03*
X134031Y178000D02*
D03*
X107968Y148000D02*
D03*
X134031D02*
D03*
M02*
