G04 #@! TF.FileFunction,Soldermask,Top*
%FSLAX46Y46*%
G04 Gerber Fmt 4.6, Leading zero omitted, Abs format (unit mm)*
G04 Created by KiCad (PCBNEW (2015-01-16 BZR 5376)-product) date 2/20/2015 2:24:23 PM*
%MOMM*%
G01*
G04 APERTURE LIST*
%ADD10C,0.100000*%
%ADD11R,1.804800X2.504800*%
%ADD12R,1.054800X1.504800*%
%ADD13C,4.114800*%
%ADD14R,1.828800X1.828800*%
%ADD15C,1.828800*%
%ADD16R,2.336800X2.336800*%
%ADD17O,2.336800X2.336800*%
%ADD18R,2.032000X2.336800*%
%ADD19O,2.032000X2.336800*%
%ADD20R,1.204800X1.504800*%
%ADD21R,2.004800X2.304800*%
%ADD22R,0.704800X1.104800*%
%ADD23R,3.304540X3.304540*%
%ADD24R,4.104800X2.304800*%
%ADD25R,1.804800X2.304800*%
%ADD26R,1.904800X1.804800*%
%ADD27R,1.504800X1.504800*%
%ADD28R,3.454800X3.454800*%
%ADD29R,1.454800X0.604800*%
%ADD30R,0.604800X1.454800*%
%ADD31C,0.990600*%
%ADD32C,3.860800*%
%ADD33R,1.774800X1.674800*%
G04 APERTURE END LIST*
D10*
D11*
X122936000Y-61298000D03*
X122936000Y-58498000D03*
D12*
X139954000Y-59451200D03*
X139954000Y-61351200D03*
X192024000Y-74610000D03*
X192024000Y-72710000D03*
X119126000Y-75250000D03*
X119126000Y-77150000D03*
X105537000Y-72837000D03*
X105537000Y-74737000D03*
X148945600Y-72837000D03*
X148945600Y-74737000D03*
X95554800Y-66639400D03*
X95554800Y-68539400D03*
X138734800Y-66639400D03*
X138734800Y-68539400D03*
X181864000Y-66614000D03*
X181864000Y-68514000D03*
X93522800Y-66614000D03*
X93522800Y-68514000D03*
X136525000Y-66639400D03*
X136525000Y-68539400D03*
X179832000Y-66614000D03*
X179832000Y-68514000D03*
X99187000Y-74737000D03*
X99187000Y-72837000D03*
X142163800Y-74737000D03*
X142163800Y-72837000D03*
X185420000Y-74610000D03*
X185420000Y-72710000D03*
D13*
X89105000Y-50800000D03*
X114095000Y-50800000D03*
D14*
X96060000Y-49380000D03*
D15*
X98830000Y-49380000D03*
X101600000Y-49403000D03*
X104370000Y-49380000D03*
X107140000Y-49380000D03*
X97445000Y-52220000D03*
X100215000Y-52220000D03*
X102985000Y-52220000D03*
X105755000Y-52220000D03*
D16*
X115570000Y-88900000D03*
D17*
X113030000Y-88900000D03*
D16*
X158750000Y-88900000D03*
D17*
X156210000Y-88900000D03*
D16*
X201930000Y-88900000D03*
D17*
X199390000Y-88900000D03*
D16*
X83820000Y-74930000D03*
D17*
X83820000Y-72390000D03*
D18*
X95224600Y-88900000D03*
D19*
X97764600Y-88900000D03*
X100304600Y-88900000D03*
X102844600Y-88900000D03*
X105384600Y-88900000D03*
X107924600Y-88900000D03*
D18*
X138430000Y-88900000D03*
D19*
X140970000Y-88900000D03*
X143510000Y-88900000D03*
X146050000Y-88900000D03*
X148590000Y-88900000D03*
X151130000Y-88900000D03*
D18*
X181610000Y-88900000D03*
D19*
X184150000Y-88900000D03*
X186690000Y-88900000D03*
X189230000Y-88900000D03*
X191770000Y-88900000D03*
X194310000Y-88900000D03*
D16*
X205740000Y-62230000D03*
D17*
X205740000Y-59690000D03*
D16*
X205740000Y-72390000D03*
D17*
X205740000Y-69850000D03*
D16*
X87630000Y-88900000D03*
D17*
X90170000Y-88900000D03*
D16*
X130810000Y-88900000D03*
D17*
X133350000Y-88900000D03*
D16*
X173990000Y-88900000D03*
D17*
X176530000Y-88900000D03*
D13*
X175465000Y-50800000D03*
X200455000Y-50800000D03*
D14*
X182420000Y-49380000D03*
D15*
X185190000Y-49380000D03*
X187960000Y-49403000D03*
X190730000Y-49380000D03*
X193500000Y-49380000D03*
X183805000Y-52220000D03*
X186575000Y-52220000D03*
X189345000Y-52220000D03*
X192115000Y-52220000D03*
D20*
X165100000Y-70020000D03*
X165100000Y-72220000D03*
X123190000Y-77300000D03*
X123190000Y-75100000D03*
X162560000Y-72220000D03*
X162560000Y-70020000D03*
X92710000Y-82380000D03*
X92710000Y-80180000D03*
X90170000Y-82380000D03*
X90170000Y-80180000D03*
X133350000Y-82786400D03*
X133350000Y-80586400D03*
X130810000Y-82786400D03*
X130810000Y-80586400D03*
X176530000Y-82380000D03*
X176530000Y-80180000D03*
X173990000Y-82380000D03*
X173990000Y-80180000D03*
D21*
X104140000Y-56928000D03*
X104140000Y-60928000D03*
X147320000Y-56953400D03*
X147320000Y-60953400D03*
X190500000Y-57055000D03*
X190500000Y-61055000D03*
X99187000Y-56928000D03*
X99187000Y-60928000D03*
X142240000Y-56953400D03*
X142240000Y-60953400D03*
X185420000Y-57055000D03*
X185420000Y-61055000D03*
D20*
X103251000Y-74887000D03*
X103251000Y-72687000D03*
X146456400Y-74887000D03*
X146456400Y-72687000D03*
X189738000Y-74760000D03*
X189738000Y-72560000D03*
X108458000Y-72601000D03*
X108458000Y-70401000D03*
X151892000Y-72601000D03*
X151892000Y-70401000D03*
X195326000Y-72474000D03*
X195326000Y-70274000D03*
D22*
X107537400Y-82486400D03*
X108337400Y-82486400D03*
X109137400Y-82486400D03*
X109937400Y-82486400D03*
X109937400Y-80886400D03*
X109137400Y-80886400D03*
X108337400Y-80886400D03*
X107537400Y-80886400D03*
X149269600Y-82486400D03*
X150069600Y-82486400D03*
X150869600Y-82486400D03*
X151669600Y-82486400D03*
X151669600Y-80886400D03*
X150869600Y-80886400D03*
X150069600Y-80886400D03*
X149269600Y-80886400D03*
X191840000Y-82080000D03*
X192640000Y-82080000D03*
X193440000Y-82080000D03*
X194240000Y-82080000D03*
X194240000Y-80480000D03*
X193440000Y-80480000D03*
X192640000Y-80480000D03*
X191840000Y-80480000D03*
X98685200Y-80886400D03*
X97885200Y-80886400D03*
X97085200Y-80886400D03*
X96285200Y-80886400D03*
X96285200Y-82486400D03*
X97085200Y-82486400D03*
X97885200Y-82486400D03*
X98685200Y-82486400D03*
X140925400Y-80886400D03*
X140125400Y-80886400D03*
X139325400Y-80886400D03*
X138525400Y-80886400D03*
X138525400Y-82486400D03*
X139325400Y-82486400D03*
X140125400Y-82486400D03*
X140925400Y-82486400D03*
X184080000Y-80480000D03*
X183280000Y-80480000D03*
X182480000Y-80480000D03*
X181680000Y-80480000D03*
X181680000Y-82080000D03*
X182480000Y-82080000D03*
X183280000Y-82080000D03*
X184080000Y-82080000D03*
D23*
X109880400Y-65659000D03*
X153619200Y-65709800D03*
X197104000Y-65786000D03*
D24*
X165100000Y-58420000D03*
D25*
X162800000Y-64720000D03*
X165100000Y-64720000D03*
X167400000Y-64720000D03*
D26*
X112318800Y-69924000D03*
D27*
X113318800Y-72574000D03*
X111318800Y-72574000D03*
D26*
X155829000Y-70051000D03*
D27*
X156829000Y-72701000D03*
X154829000Y-72701000D03*
D26*
X198882000Y-69924000D03*
D27*
X199882000Y-72574000D03*
X197882000Y-72574000D03*
D13*
X132285000Y-50800000D03*
X157275000Y-50800000D03*
D14*
X139240000Y-49380000D03*
D15*
X142010000Y-49380000D03*
X144780000Y-49403000D03*
X147550000Y-49380000D03*
X150320000Y-49380000D03*
X140625000Y-52220000D03*
X143395000Y-52220000D03*
X146165000Y-52220000D03*
X148935000Y-52220000D03*
D27*
X123190000Y-80484000D03*
X123190000Y-82584000D03*
D28*
X187960000Y-67310000D03*
D29*
X185560000Y-65810000D03*
X185560000Y-66310000D03*
X185560000Y-66810000D03*
X185560000Y-67310000D03*
X185560000Y-67810000D03*
X185560000Y-68310000D03*
X185560000Y-68810000D03*
X190360000Y-68810000D03*
X190360000Y-68310000D03*
X190360000Y-67810000D03*
X190360000Y-67310000D03*
X190360000Y-66810000D03*
X190360000Y-66310000D03*
X190360000Y-65810000D03*
D30*
X186460000Y-69710000D03*
X186960000Y-69710000D03*
X187460000Y-69710000D03*
X187960000Y-69710000D03*
X188460000Y-69710000D03*
X188960000Y-69710000D03*
X189460000Y-69710000D03*
X189460000Y-64910000D03*
X188960000Y-64910000D03*
X188460000Y-64910000D03*
X187960000Y-64910000D03*
X187460000Y-64910000D03*
X186960000Y-64910000D03*
X186460000Y-64910000D03*
D31*
X186960000Y-66310000D03*
X187960000Y-66310000D03*
X188960000Y-66310000D03*
X186960000Y-67310000D03*
X187960000Y-67310000D03*
X188960000Y-67310000D03*
X188960000Y-68310000D03*
X187960000Y-68310000D03*
X186960000Y-68310000D03*
D28*
X144780000Y-67335400D03*
D29*
X142380000Y-65835400D03*
X142380000Y-66335400D03*
X142380000Y-66835400D03*
X142380000Y-67335400D03*
X142380000Y-67835400D03*
X142380000Y-68335400D03*
X142380000Y-68835400D03*
X147180000Y-68835400D03*
X147180000Y-68335400D03*
X147180000Y-67835400D03*
X147180000Y-67335400D03*
X147180000Y-66835400D03*
X147180000Y-66335400D03*
X147180000Y-65835400D03*
D30*
X143280000Y-69735400D03*
X143780000Y-69735400D03*
X144280000Y-69735400D03*
X144780000Y-69735400D03*
X145280000Y-69735400D03*
X145780000Y-69735400D03*
X146280000Y-69735400D03*
X146280000Y-64935400D03*
X145780000Y-64935400D03*
X145280000Y-64935400D03*
X144780000Y-64935400D03*
X144280000Y-64935400D03*
X143780000Y-64935400D03*
X143280000Y-64935400D03*
D31*
X143780000Y-66335400D03*
X144780000Y-66335400D03*
X145780000Y-66335400D03*
X143780000Y-67335400D03*
X144780000Y-67335400D03*
X145780000Y-67335400D03*
X145780000Y-68335400D03*
X144780000Y-68335400D03*
X143780000Y-68335400D03*
D28*
X101600000Y-67335400D03*
D29*
X99200000Y-65835400D03*
X99200000Y-66335400D03*
X99200000Y-66835400D03*
X99200000Y-67335400D03*
X99200000Y-67835400D03*
X99200000Y-68335400D03*
X99200000Y-68835400D03*
X104000000Y-68835400D03*
X104000000Y-68335400D03*
X104000000Y-67835400D03*
X104000000Y-67335400D03*
X104000000Y-66835400D03*
X104000000Y-66335400D03*
X104000000Y-65835400D03*
D30*
X100100000Y-69735400D03*
X100600000Y-69735400D03*
X101100000Y-69735400D03*
X101600000Y-69735400D03*
X102100000Y-69735400D03*
X102600000Y-69735400D03*
X103100000Y-69735400D03*
X103100000Y-64935400D03*
X102600000Y-64935400D03*
X102100000Y-64935400D03*
X101600000Y-64935400D03*
X101100000Y-64935400D03*
X100600000Y-64935400D03*
X100100000Y-64935400D03*
D31*
X100600000Y-66335400D03*
X101600000Y-66335400D03*
X102600000Y-66335400D03*
X100600000Y-67335400D03*
X101600000Y-67335400D03*
X102600000Y-67335400D03*
X102600000Y-68335400D03*
X101600000Y-68335400D03*
X100600000Y-68335400D03*
D12*
X106400600Y-59425800D03*
X106400600Y-61325800D03*
X96926400Y-59451200D03*
X96926400Y-61351200D03*
X149606000Y-59451200D03*
X149606000Y-61351200D03*
X182880000Y-59375000D03*
X182880000Y-61275000D03*
X193040000Y-59375000D03*
X193040000Y-61275000D03*
X122936000Y-69022000D03*
X122936000Y-67122000D03*
D32*
X166370000Y-87630000D03*
X123190000Y-49530000D03*
X123190000Y-87630000D03*
X166370000Y-49530000D03*
X204470000Y-80010000D03*
X85090000Y-81280000D03*
D33*
X83820000Y-67925000D03*
X83820000Y-64155000D03*
M02*
