M48
INCH,TZ
T1C0.013
T2C0.039
T3C0.040
T4C0.120
T5C0.130
%
G90
G05
T1
X34000Y-24750
X34000Y-25250
X34000Y-25750
X35500Y-31000
X36500Y-31000
X36800Y-25400
X37080Y-27870
X38100Y-26250
X38130Y-27010
X38220Y-33860
X38382Y-30897
X38395Y-27300
X38400Y-24800
X38400Y-26050
X38450Y-22200
X38450Y-22600
X38530Y-33320
X38600Y-25000
X39070Y-30180
X39226Y-30894
X39420Y-31410
X39606Y-26116
X39606Y-26510
X39606Y-26904
X40000Y-26116
X40000Y-26510
X40000Y-26904
X40394Y-26116
X40394Y-26510
X40394Y-26904
X40650Y-30200
X41150Y-27800
X41400Y-25000
X41600Y-22200
X41600Y-22650
X41600Y-24800
X41721Y-26204
X41750Y-30000
X41800Y-31450
X42148Y-26388
X42250Y-27150
X42250Y-31200
X42640Y-30810
X42640Y-33380
X42700Y-27150
X42945Y-30325
X42970Y-33110
X43270Y-33460
X43277Y-30024
X43650Y-30850
X43750Y-31300
X44620Y-29390
X46900Y-28800
X46900Y-31300
X47500Y-32500
X48400Y-21900
X48400Y-25500
X48400Y-27900
X48500Y-28800
X51500Y-31090
X52510Y-31080
X53800Y-25500
X54850Y-33310
X55010Y-30980
X55100Y-22510
X55100Y-26220
X55110Y-22160
X55190Y-33690
X55370Y-25970
X55400Y-24800
X55460Y-27400
X55600Y-25000
X55960Y-30040
X56070Y-31050
X56490Y-31460
X56606Y-26116
X56606Y-26510
X56606Y-26904
X57000Y-26116
X57000Y-26510
X57000Y-26904
X57394Y-26116
X57394Y-26510
X57394Y-26904
X57660Y-30100
X58160Y-30960
X58220Y-27820
X58400Y-25000
X58600Y-24800
X58640Y-30060
X58890Y-22630
X58900Y-22250
X58960Y-26130
X58960Y-27020
X59080Y-31040
X59090Y-33200
X59130Y-30610
X59390Y-26290
X59460Y-33540
X59700Y-30610
X59710Y-33130
X59810Y-27090
X61740Y-29540
X64000Y-29250
X65000Y-29250
X66900Y-25500
X67200Y-25500
X68500Y-30950
X69500Y-30950
X70800Y-25400
X71850Y-33400
X72000Y-22250
X72000Y-22650
X72000Y-30950
X72050Y-25750
X72150Y-26150
X72350Y-33100
X72400Y-24800
X72400Y-27300
X72600Y-25000
X73000Y-30000
X73000Y-31300
X73250Y-31800
X73606Y-26106
X73606Y-26500
X73606Y-26894
X74000Y-26106
X74000Y-26500
X74000Y-26894
X74394Y-26106
X74394Y-26500
X74394Y-26894
X74700Y-30000
X74950Y-31450
X75100Y-31000
X75400Y-25000
X75400Y-27700
X75550Y-30700
X75600Y-24800
X75600Y-30000
X75850Y-33050
X75900Y-26200
X75900Y-27050
X76000Y-22250
X76000Y-22700
X76100Y-30650
X76550Y-30700
X76600Y-26300
X76600Y-33500
X76900Y-27000
X76900Y-30900
X78700Y-29550
T2
X37819Y-19441
X38364Y-20559
X38909Y-19441
X39455Y-20559
X40545Y-20559
X41091Y-19441
X41636Y-20559
X42181Y-19441
X54819Y-19441
X55364Y-20559
X55909Y-19441
X56455Y-20559
X57545Y-20559
X58091Y-19441
X58636Y-20559
X59181Y-19441
X71819Y-19441
X72364Y-20559
X72909Y-19441
X73455Y-20559
X74545Y-20559
X75091Y-19441
X75636Y-20559
X76181Y-19441
T3
X33000Y-28500
X33000Y-29500
X34500Y-35000
X35500Y-35000
X37490Y-35000
X38490Y-35000
X39490Y-35000
X40000Y-19450
X40490Y-35000
X41490Y-35000
X42490Y-35000
X44500Y-35000
X45500Y-35000
X51500Y-35000
X52500Y-35000
X54500Y-35000
X55500Y-35000
X56500Y-35000
X57000Y-19450
X57500Y-35000
X58500Y-35000
X59500Y-35000
X61500Y-35000
X62500Y-35000
X68500Y-35000
X69500Y-35000
X71500Y-35000
X72500Y-35000
X73500Y-35000
X74000Y-19450
X74500Y-35000
X75500Y-35000
X76500Y-35000
X78500Y-35000
X79500Y-35000
X81000Y-23500
X81000Y-24500
X81000Y-27500
X81000Y-28500
T4
X35081Y-20000
X44919Y-20000
X52081Y-20000
X61919Y-20000
X69081Y-20000
X78919Y-20000
T5
X33500Y-32000
X48500Y-19500
X48500Y-34500
X65500Y-19500
X65500Y-34500
X80500Y-31500
T0
M30
