G04 #@! TF.FileFunction,Soldermask,Bot*
%FSLAX46Y46*%
G04 Gerber Fmt 4.6, Leading zero omitted, Abs format (unit mm)*
G04 Created by KiCad (PCBNEW (2015-01-16 BZR 5376)-product) date 2/20/2015 2:24:23 PM*
%MOMM*%
G01*
G04 APERTURE LIST*
%ADD10C,0.100000*%
%ADD11C,4.114800*%
%ADD12R,1.828800X1.828800*%
%ADD13C,1.828800*%
%ADD14R,2.336800X2.336800*%
%ADD15O,2.336800X2.336800*%
%ADD16R,2.032000X2.336800*%
%ADD17O,2.032000X2.336800*%
%ADD18C,0.990600*%
%ADD19C,3.860800*%
G04 APERTURE END LIST*
D10*
D11*
X89105000Y-50800000D03*
X114095000Y-50800000D03*
D12*
X96060000Y-49380000D03*
D13*
X98830000Y-49380000D03*
X101600000Y-49403000D03*
X104370000Y-49380000D03*
X107140000Y-49380000D03*
X97445000Y-52220000D03*
X100215000Y-52220000D03*
X102985000Y-52220000D03*
X105755000Y-52220000D03*
D14*
X115570000Y-88900000D03*
D15*
X113030000Y-88900000D03*
D14*
X158750000Y-88900000D03*
D15*
X156210000Y-88900000D03*
D14*
X201930000Y-88900000D03*
D15*
X199390000Y-88900000D03*
D14*
X83820000Y-74930000D03*
D15*
X83820000Y-72390000D03*
D16*
X95224600Y-88900000D03*
D17*
X97764600Y-88900000D03*
X100304600Y-88900000D03*
X102844600Y-88900000D03*
X105384600Y-88900000D03*
X107924600Y-88900000D03*
D16*
X138430000Y-88900000D03*
D17*
X140970000Y-88900000D03*
X143510000Y-88900000D03*
X146050000Y-88900000D03*
X148590000Y-88900000D03*
X151130000Y-88900000D03*
D16*
X181610000Y-88900000D03*
D17*
X184150000Y-88900000D03*
X186690000Y-88900000D03*
X189230000Y-88900000D03*
X191770000Y-88900000D03*
X194310000Y-88900000D03*
D14*
X205740000Y-62230000D03*
D15*
X205740000Y-59690000D03*
D14*
X205740000Y-72390000D03*
D15*
X205740000Y-69850000D03*
D14*
X87630000Y-88900000D03*
D15*
X90170000Y-88900000D03*
D14*
X130810000Y-88900000D03*
D15*
X133350000Y-88900000D03*
D14*
X173990000Y-88900000D03*
D15*
X176530000Y-88900000D03*
D11*
X175465000Y-50800000D03*
X200455000Y-50800000D03*
D12*
X182420000Y-49380000D03*
D13*
X185190000Y-49380000D03*
X187960000Y-49403000D03*
X190730000Y-49380000D03*
X193500000Y-49380000D03*
X183805000Y-52220000D03*
X186575000Y-52220000D03*
X189345000Y-52220000D03*
X192115000Y-52220000D03*
D11*
X132285000Y-50800000D03*
X157275000Y-50800000D03*
D12*
X139240000Y-49380000D03*
D13*
X142010000Y-49380000D03*
X144780000Y-49403000D03*
X147550000Y-49380000D03*
X150320000Y-49380000D03*
X140625000Y-52220000D03*
X143395000Y-52220000D03*
X146165000Y-52220000D03*
X148935000Y-52220000D03*
D18*
X186960000Y-66310000D03*
X187960000Y-66310000D03*
X188960000Y-66310000D03*
X186960000Y-67310000D03*
X187960000Y-67310000D03*
X188960000Y-67310000D03*
X188960000Y-68310000D03*
X187960000Y-68310000D03*
X186960000Y-68310000D03*
X143780000Y-66335400D03*
X144780000Y-66335400D03*
X145780000Y-66335400D03*
X143780000Y-67335400D03*
X144780000Y-67335400D03*
X145780000Y-67335400D03*
X145780000Y-68335400D03*
X144780000Y-68335400D03*
X143780000Y-68335400D03*
X100600000Y-66335400D03*
X101600000Y-66335400D03*
X102600000Y-66335400D03*
X100600000Y-67335400D03*
X101600000Y-67335400D03*
X102600000Y-67335400D03*
X102600000Y-68335400D03*
X101600000Y-68335400D03*
X100600000Y-68335400D03*
D19*
X166370000Y-87630000D03*
X123190000Y-49530000D03*
X123190000Y-87630000D03*
X166370000Y-49530000D03*
X204470000Y-80010000D03*
X85090000Y-81280000D03*
M02*
