M48
INCH,TZ
T1C0.024
T2C0.025
T3C0.030
T4C0.038
T5C0.040
T6C0.098
%
G90
G05
T1
X51000Y-37000
X51000Y-38000
X51000Y-39000
X51000Y-40000
X51000Y-41000
X51000Y-42000
X51000Y-43000
X51000Y-44000
X51000Y-45000
X51000Y-46000
X51000Y-47000
X51000Y-48000
X51000Y-49000
X51000Y-50000
X52000Y-50000
X53000Y-50000
X54000Y-50000
X55000Y-50000
X56000Y-38000
X56000Y-40000
X56000Y-41000
X56000Y-42000
X56000Y-50000
X57000Y-37000
X57000Y-38000
X57000Y-39000
X57000Y-40000
X57000Y-41000
X57000Y-42000
X57000Y-43000
X57000Y-44000
X57000Y-45000
X57000Y-46000
X57000Y-47000
X57000Y-48000
X57000Y-49000
X57000Y-50000
T2
X23750Y-39250
X23750Y-50000
X23750Y-60250
X32750Y-44000
X35000Y-52250
X35250Y-40750
X35500Y-62500
X36600Y-56800
X38000Y-42600
X38600Y-55400
X39750Y-39000
X46000Y-56800
X46400Y-42600
X47000Y-55800
X50154Y-64331
X51000Y-35000
X52000Y-35000
X52800Y-55400
X55854Y-60000
X56000Y-52000
X59000Y-48000
X59000Y-49000
T3
X41441Y-53821
X41441Y-56821
X41500Y-41000
X41500Y-44000
X42441Y-53821
X42441Y-56821
X42500Y-41000
X42500Y-44000
X43441Y-53821
X43441Y-56821
X43500Y-41000
X43500Y-44000
X44441Y-53821
X44441Y-56821
X44500Y-41000
X44500Y-44000
T4
X19000Y-19000
X19000Y-29000
X31000Y-20000
X31000Y-28000
T5
X13268Y-36689
X13268Y-42201
X13268Y-47614
X13268Y-52634
X13268Y-57555
X13268Y-63067
X16268Y-36689
X16268Y-42201
X16268Y-47614
X16268Y-52634
X16268Y-57555
X16268Y-63067
X19173Y-36689
X19173Y-42201
X19173Y-47614
X19173Y-52634
X19173Y-57555
X19173Y-63067
X22173Y-36689
X22173Y-42201
X22173Y-47614
X22173Y-52634
X22173Y-57555
X22173Y-63067
X38000Y-38000
X38000Y-39000
X38000Y-40000
X51791Y-57484
X51791Y-59984
X52791Y-57484
X52791Y-59984
X53791Y-57484
X53791Y-59984
T6
X10600Y-14600
X10600Y-65400
X60400Y-14600
X60400Y-65400
T0
M30
